<svg width="1440" height="1024" viewBox="0 0 1440 1024" fill="none" xmlns="http://www.w3.org/2000/svg">
<rect width="1440" height="1024" fill="white"/>
<rect width="1440" height="498.575" fill="#BEBEBE"/>
<path d="M373 426.64C373 388.48 343.66 355 307.84 355H224.86V357.34H230.08C236.92 357.34 241.78 360.76 241.78 369.22V486.4C241.78 493.6 237.1 496.84 228.28 496.84H217.84V499H307.12C340.78 499 373 477.22 373 426.64ZM326.02 425.92C326.02 490.18 318.46 496.84 304.42 496.84H293.08C286.6 496.84 283 492.52 283 486.04V357.34H301.54C315.4 357.34 326.02 368.68 326.02 425.92ZM473.984 444.28C473.984 422.32 458.864 399.28 429.884 399.28C404.144 399.28 380.744 421.24 380.744 451.48C380.744 481.72 401.444 501.7 432.404 501.7C459.584 501.7 473.444 480.64 473.444 463.36H470.924C470.924 480.46 455.984 498.64 436.364 498.64C423.944 498.64 418.184 490.9 418.184 454.54C418.184 452.56 418.364 450.58 418.364 448.6H469.124C472.364 448.6 473.984 447.88 473.984 444.28ZM439.244 442.84C439.244 446.62 437.264 446.08 434.924 446.08H418.364C418.904 413.14 422.504 401.8 430.784 401.8C439.784 401.8 439.244 409.9 439.244 442.84ZM579.596 446.62C579.596 417.1 563.396 398.56 546.116 398.56C534.956 398.56 527.036 404.5 523.076 412.6V355.18H476.276V357.34H482.396C485.096 357.34 487.256 358.6 487.256 363.82V498.82H489.056C489.056 489.82 493.016 481.9 500.216 481.9C511.016 481.9 514.976 501.34 533.336 501.34C556.016 501.34 579.596 481.18 579.596 446.62ZM542.516 453.82C542.516 496.12 540.176 499.54 531.716 499.54C526.856 499.54 523.076 496.48 523.076 488.38V421.06C524.696 411.88 528.476 406.66 533.156 406.66C539.636 406.66 542.516 412.96 542.516 453.82ZM679.271 419.08C679.271 406.12 670.091 397.12 659.291 397.12C646.151 397.12 640.211 408.1 638.051 412.78L637.151 401.62H589.091V403.96H595.211C599.351 403.96 601.871 407.38 601.871 412.24V489.1C601.871 493.96 597.911 496.84 592.691 496.84H586.571V499H651.191V496.84H644.351C641.471 496.84 639.131 494.5 639.131 488.74V425.2C639.131 405.04 651.011 399.1 658.751 399.1C666.311 399.1 671.531 403.6 671.531 406.48C671.531 407.02 670.991 407.38 670.631 407.38C669.551 407.38 666.671 404.68 660.191 404.68C651.371 404.68 643.451 411.88 643.451 422.68C643.451 432.58 652.631 439.42 660.911 439.42C670.271 439.42 679.271 432.04 679.271 419.08ZM736.326 376.78C736.326 366.7 726.966 358.6 715.446 358.6C703.746 358.6 694.386 366.7 694.386 376.78C694.386 387.04 703.746 395.14 715.446 395.14C726.966 395.14 736.326 387.04 736.326 376.78ZM746.946 496.66H741.726C737.406 496.66 735.246 493.06 735.246 488.2V401.62H685.386V403.96H690.246C695.106 403.96 697.626 407.02 697.626 411.88V488.2C697.626 493.06 694.206 496.66 688.986 496.66H683.586V499H746.946V496.66ZM845.762 444.28C845.762 422.32 830.642 399.28 801.662 399.28C775.922 399.28 752.522 421.24 752.522 451.48C752.522 481.72 773.222 501.7 804.182 501.7C831.362 501.7 845.222 480.64 845.222 463.36H842.702C842.702 480.46 827.762 498.64 808.142 498.64C795.722 498.64 789.962 490.9 789.962 454.54C789.962 452.56 790.142 450.58 790.142 448.6H840.902C844.142 448.6 845.762 447.88 845.762 444.28ZM811.022 442.84C811.022 446.62 809.042 446.08 806.702 446.08H790.142C790.682 413.14 794.282 401.8 802.562 401.8C811.562 401.8 811.022 409.9 811.022 442.84ZM947.594 375.88C947.594 364.9 937.874 353.38 914.474 353.38C891.254 353.38 866.234 365.44 866.234 385.24V401.44H855.794V403.96H866.234V489.82C866.234 495.22 862.274 496.66 857.954 496.66H849.854V499H918.434V496.66H910.514C906.374 496.66 903.314 494.32 903.314 489.46V403.96H924.194V401.44H903.314V373C903.314 362.02 910.334 355.9 920.594 355.9C928.514 355.9 933.194 358.42 933.194 359.32C933.194 359.68 932.654 359.68 931.754 359.68C930.494 359.68 928.874 359.68 927.074 359.68C916.994 359.68 908.714 366.88 908.714 377.14C908.714 388.48 918.434 394.42 928.154 394.42C940.214 394.42 947.594 385.42 947.594 375.88ZM973.872 480.46C973.872 468.76 964.152 459.22 952.092 459.22C940.032 459.22 930.312 468.76 930.312 480.46C930.312 492.16 940.032 501.7 952.092 501.7C964.152 501.7 973.872 492.16 973.872 480.46Z" fill="black"/>
<path d="M647.781 545V496.75H655.031C658.26 496.75 660.833 497 662.75 497.5C664.688 498 666.323 498.844 667.656 500.031C669.01 501.26 670.083 502.792 670.875 504.625C671.688 506.479 672.094 508.354 672.094 510.25C672.094 513.708 670.771 516.635 668.125 519.031C670.688 519.906 672.708 521.438 674.188 523.625C675.688 525.792 676.438 528.312 676.438 531.188C676.438 534.958 675.104 538.146 672.438 540.75C670.833 542.354 669.031 543.469 667.031 544.094C664.844 544.698 662.104 545 658.812 545H647.781ZM655.062 517.469H657.344C660.052 517.469 662.031 516.875 663.281 515.688C664.552 514.479 665.188 512.708 665.188 510.375C665.188 508.104 664.542 506.385 663.25 505.219C661.958 504.031 660.083 503.438 657.625 503.438H655.062V517.469ZM655.062 538.156H659.562C662.854 538.156 665.271 537.51 666.812 536.219C668.438 534.823 669.25 533.052 669.25 530.906C669.25 528.823 668.469 527.073 666.906 525.656C665.385 524.26 662.667 523.562 658.75 523.562H655.062V538.156ZM692.938 496.75V545H685.656V496.75H692.938ZM711.812 496.75V538.156H726V545H704.531V496.75H711.812ZM740.188 496.75V538.156H754.375V545H732.906V496.75H740.188ZM788.75 503.938L782.844 507.438C781.74 505.521 780.688 504.271 779.688 503.688C778.646 503.021 777.302 502.688 775.656 502.688C773.635 502.688 771.958 503.26 770.625 504.406C769.292 505.531 768.625 506.948 768.625 508.656C768.625 511.01 770.375 512.906 773.875 514.344L778.688 516.312C782.604 517.896 785.469 519.833 787.281 522.125C789.094 524.396 790 527.188 790 530.5C790 534.938 788.521 538.604 785.562 541.5C782.583 544.417 778.885 545.875 774.469 545.875C770.281 545.875 766.823 544.635 764.094 542.156C761.406 539.677 759.729 536.188 759.062 531.688L766.438 530.062C766.771 532.896 767.354 534.854 768.188 535.938C769.688 538.021 771.875 539.062 774.75 539.062C777.021 539.062 778.906 538.302 780.406 536.781C781.906 535.26 782.656 533.333 782.656 531C782.656 530.062 782.521 529.208 782.25 528.438C782 527.646 781.594 526.927 781.031 526.281C780.49 525.615 779.781 525 778.906 524.438C778.031 523.854 776.99 523.302 775.781 522.781L771.125 520.844C764.521 518.052 761.219 513.969 761.219 508.594C761.219 504.969 762.604 501.938 765.375 499.5C768.146 497.042 771.594 495.812 775.719 495.812C781.281 495.812 785.625 498.521 788.75 503.938ZM842.625 503.594H825.812V515.188H842.031V522.031H825.812V545H818.531V496.75H842.625V503.594ZM848.75 520.656C848.75 513.865 851.24 508.031 856.219 503.156C861.177 498.281 867.135 495.844 874.094 495.844C880.969 495.844 886.865 498.302 891.781 503.219C896.719 508.135 899.188 514.042 899.188 520.938C899.188 527.875 896.708 533.76 891.75 538.594C886.771 543.448 880.76 545.875 873.719 545.875C867.49 545.875 861.896 543.719 856.938 539.406C851.479 534.635 848.75 528.385 848.75 520.656ZM856.094 520.75C856.094 526.083 857.885 530.469 861.469 533.906C865.031 537.344 869.146 539.062 873.812 539.062C878.875 539.062 883.146 537.312 886.625 533.812C890.104 530.271 891.844 525.958 891.844 520.875C891.844 515.729 890.125 511.417 886.688 507.938C883.271 504.438 879.042 502.688 874 502.688C868.979 502.688 864.74 504.438 861.281 507.938C857.823 511.396 856.094 515.667 856.094 520.75ZM924.688 524.438L939.625 545H930.719L916.938 525.25H915.625V545H908.344V496.75H916.875C923.25 496.75 927.854 497.948 930.688 500.344C933.812 503.01 935.375 506.531 935.375 510.906C935.375 514.323 934.396 517.26 932.438 519.719C930.479 522.177 927.896 523.75 924.688 524.438ZM915.625 518.906H917.938C924.833 518.906 928.281 516.271 928.281 511C928.281 506.062 924.927 503.594 918.219 503.594H915.625V518.906Z" fill="black"/>
<path d="M978.738 498.297V580.035C978.738 591.695 980.643 600.221 984.451 605.611C990.135 613.404 998.133 617.301 1008.45 617.301C1018.82 617.301 1026.84 613.404 1032.53 605.611C1036.34 600.396 1038.24 591.871 1038.24 580.035V498.297H1058.72V585.66C1058.72 599.957 1054.27 611.734 1045.36 620.992C1035.34 631.305 1023.04 636.461 1008.45 636.461C993.855 636.461 981.58 631.305 971.619 620.992C962.713 611.734 958.26 599.957 958.26 585.66V498.297H978.738ZM1168.05 518.512L1151.44 528.355C1148.34 522.965 1145.38 519.449 1142.57 517.809C1139.64 515.934 1135.86 514.996 1131.23 514.996C1125.54 514.996 1120.83 516.607 1117.08 519.83C1113.33 522.994 1111.45 526.979 1111.45 531.783C1111.45 538.404 1116.38 543.736 1126.22 547.779L1139.75 553.316C1150.77 557.77 1158.83 563.219 1163.92 569.664C1169.02 576.051 1171.57 583.902 1171.57 593.219C1171.57 605.699 1167.41 616.012 1159.09 624.156C1150.71 632.359 1140.31 636.461 1127.89 636.461C1116.11 636.461 1106.38 632.975 1098.71 626.002C1091.15 619.029 1086.43 609.215 1084.56 596.559L1105.3 591.988C1106.24 599.957 1107.88 605.465 1110.22 608.512C1114.44 614.371 1120.59 617.301 1128.68 617.301C1135.07 617.301 1140.37 615.162 1144.59 610.885C1148.81 606.607 1150.92 601.188 1150.92 594.625C1150.92 591.988 1150.54 589.586 1149.77 587.418C1149.07 585.191 1147.93 583.17 1146.35 581.354C1144.82 579.479 1142.83 577.75 1140.37 576.168C1137.91 574.527 1134.98 572.975 1131.58 571.51L1118.48 566.061C1099.91 558.209 1090.62 546.725 1090.62 531.607C1090.62 521.412 1094.52 512.887 1102.31 506.031C1110.11 499.117 1119.8 495.66 1131.4 495.66C1147.05 495.66 1159.27 503.277 1168.05 518.512Z" fill="black"/>
<path d="M220 560.108H874.663L893 560.108L943 560.108L875.482 613V581H220V560.108Z" fill="black"/>
</svg>
