<?xml version="1.0" encoding="UTF-8"?>
<svg id="Layer_3" data-name="Layer 3" xmlns="http://www.w3.org/2000/svg" viewBox="0 0 100 100">
  <path d="m43,56.98H13.24v-.72h3.48c2.94,0,4.5-1.08,4.5-3.48V13.73c0-2.82-1.62-3.96-3.9-3.96h-1.74v-.78h27.66c11.94,0,21.72,11.16,21.72,23.88,0,16.86-10.74,24.12-21.96,24.12Zm-1.86-47.22h-6.18v42.9c0,2.16,1.2,3.6,3.36,3.6h3.78c4.68,0,7.2-2.22,7.2-23.64,0-19.08-3.54-22.86-8.16-22.86Z"/>
  <path d="m45.42,74.93c-4.02,0-7.26-3.18-7.26-7.08s3.24-7.08,7.26-7.08,7.26,3.18,7.26,7.08-3.24,7.08-7.26,7.08Z"/>
  <path d="m72.05,91.01c-6.12,0-7.44-6.48-11.04-6.48-2.4,0-3.72,2.64-3.72,5.64h-.6v-45c0-1.74-.72-2.16-1.62-2.16h-2.04v-.72h15.6v19.14c1.32-2.7,3.96-4.68,7.68-4.68,5.76,0,11.16,6.18,11.16,16.02,0,11.52-7.86,18.24-15.42,18.24Zm-.06-31.56c-1.56,0-2.82,1.74-3.36,4.8v22.44c0,2.7,1.26,3.72,2.88,3.72,2.82,0,3.6-1.14,3.6-15.24s-.96-15.72-3.12-15.72Z"/>
</svg>