<svg width="952" height="142" viewBox="0 0 952 142" fill="none" xmlns="http://www.w3.org/2000/svg">
<path d="M427.781 50V1.75H435.031C438.26 1.75 440.833 2 442.75 2.5C444.688 3 446.323 3.84375 447.656 5.03125C449.01 6.26042 450.083 7.79167 450.875 9.625C451.688 11.4792 452.094 13.3542 452.094 15.25C452.094 18.7083 450.771 21.6354 448.125 24.0312C450.688 24.9062 452.708 26.4375 454.188 28.625C455.688 30.7917 456.438 33.3125 456.438 36.1875C456.438 39.9583 455.104 43.1458 452.438 45.75C450.833 47.3542 449.031 48.4688 447.031 49.0938C444.844 49.6979 442.104 50 438.812 50H427.781ZM435.062 22.4688H437.344C440.052 22.4688 442.031 21.875 443.281 20.6875C444.552 19.4792 445.188 17.7083 445.188 15.375C445.188 13.1042 444.542 11.3854 443.25 10.2188C441.958 9.03125 440.083 8.4375 437.625 8.4375H435.062V22.4688ZM435.062 43.1562H439.562C442.854 43.1562 445.271 42.5104 446.812 41.2188C448.438 39.8229 449.25 38.0521 449.25 35.9062C449.25 33.8229 448.469 32.0729 446.906 30.6562C445.385 29.2604 442.667 28.5625 438.75 28.5625H435.062V43.1562ZM472.938 1.75V50H465.656V1.75H472.938ZM491.812 1.75V43.1562H506V50H484.531V1.75H491.812ZM520.188 1.75V43.1562H534.375V50H512.906V1.75H520.188ZM568.75 8.9375L562.844 12.4375C561.74 10.5208 560.688 9.27083 559.688 8.6875C558.646 8.02083 557.302 7.6875 555.656 7.6875C553.635 7.6875 551.958 8.26042 550.625 9.40625C549.292 10.5312 548.625 11.9479 548.625 13.6562C548.625 16.0104 550.375 17.9062 553.875 19.3438L558.688 21.3125C562.604 22.8958 565.469 24.8333 567.281 27.125C569.094 29.3958 570 32.1875 570 35.5C570 39.9375 568.521 43.6042 565.562 46.5C562.583 49.4167 558.885 50.875 554.469 50.875C550.281 50.875 546.823 49.6354 544.094 47.1562C541.406 44.6771 539.729 41.1875 539.062 36.6875L546.438 35.0625C546.771 37.8958 547.354 39.8542 548.188 40.9375C549.688 43.0208 551.875 44.0625 554.75 44.0625C557.021 44.0625 558.906 43.3021 560.406 41.7812C561.906 40.2604 562.656 38.3333 562.656 36C562.656 35.0625 562.521 34.2083 562.25 33.4375C562 32.6458 561.594 31.9271 561.031 31.2812C560.49 30.6146 559.781 30 558.906 29.4375C558.031 28.8542 556.99 28.3021 555.781 27.7812L551.125 25.8438C544.521 23.0521 541.219 18.9688 541.219 13.5938C541.219 9.96875 542.604 6.9375 545.375 4.5C548.146 2.04167 551.594 0.8125 555.719 0.8125C561.281 0.8125 565.625 3.52083 568.75 8.9375ZM622.625 8.59375H605.812V20.1875H622.031V27.0312H605.812V50H598.531V1.75H622.625V8.59375ZM628.75 25.6562C628.75 18.8646 631.24 13.0312 636.219 8.15625C641.177 3.28125 647.135 0.84375 654.094 0.84375C660.969 0.84375 666.865 3.30208 671.781 8.21875C676.719 13.1354 679.188 19.0417 679.188 25.9375C679.188 32.875 676.708 38.7604 671.75 43.5938C666.771 48.4479 660.76 50.875 653.719 50.875C647.49 50.875 641.896 48.7188 636.938 44.4062C631.479 39.6354 628.75 33.3854 628.75 25.6562ZM636.094 25.75C636.094 31.0833 637.885 35.4688 641.469 38.9062C645.031 42.3438 649.146 44.0625 653.812 44.0625C658.875 44.0625 663.146 42.3125 666.625 38.8125C670.104 35.2708 671.844 30.9583 671.844 25.875C671.844 20.7292 670.125 16.4167 666.688 12.9375C663.271 9.4375 659.042 7.6875 654 7.6875C648.979 7.6875 644.74 9.4375 641.281 12.9375C637.823 16.3958 636.094 20.6667 636.094 25.75ZM704.688 29.4375L719.625 50H710.719L696.938 30.25H695.625V50H688.344V1.75H696.875C703.25 1.75 707.854 2.94792 710.688 5.34375C713.812 8.01042 715.375 11.5312 715.375 15.9062C715.375 19.3229 714.396 22.2604 712.438 24.7188C710.479 27.1771 707.896 28.75 704.688 29.4375ZM695.625 23.9062H697.938C704.833 23.9062 708.281 21.2708 708.281 16C708.281 11.0625 704.927 8.59375 698.219 8.59375H695.625V23.9062Z" fill="black"/>
<path d="M758.738 3.29688V85.0352C758.738 96.6953 760.643 105.221 764.451 110.611C770.135 118.404 778.133 122.301 788.445 122.301C798.816 122.301 806.844 118.404 812.527 110.611C816.336 105.396 818.24 96.8711 818.24 85.0352V3.29688H838.719V90.6602C838.719 104.957 834.266 116.734 825.359 125.992C815.34 136.305 803.035 141.461 788.445 141.461C773.855 141.461 761.58 136.305 751.619 125.992C742.713 116.734 738.26 104.957 738.26 90.6602V3.29688H758.738ZM948.055 23.5117L931.443 33.3555C928.338 27.9648 925.379 24.4492 922.566 22.8086C919.637 20.9336 915.857 19.9961 911.229 19.9961C905.545 19.9961 900.828 21.6074 897.078 24.8301C893.328 27.9941 891.453 31.9785 891.453 36.7832C891.453 43.4043 896.375 48.7363 906.219 52.7793L919.754 58.3164C930.77 62.7695 938.826 68.2188 943.924 74.6641C949.021 81.0508 951.57 88.9023 951.57 98.2188C951.57 110.699 947.41 121.012 939.09 129.156C930.711 137.359 920.311 141.461 907.889 141.461C896.111 141.461 886.385 137.975 878.709 131.002C871.15 124.029 866.434 114.215 864.559 101.559L885.301 96.9883C886.238 104.957 887.879 110.465 890.223 113.512C894.441 119.371 900.594 122.301 908.68 122.301C915.066 122.301 920.369 120.162 924.588 115.885C928.807 111.607 930.916 106.188 930.916 99.625C930.916 96.9883 930.535 94.5859 929.773 92.418C929.07 90.1914 927.928 88.1699 926.346 86.3535C924.822 84.4785 922.83 82.75 920.369 81.168C917.908 79.5273 914.979 77.9746 911.58 76.5098L898.484 71.0605C879.91 63.209 870.623 51.7246 870.623 36.6074C870.623 26.4121 874.52 17.8867 882.312 11.0312C890.105 4.11719 899.803 0.660156 911.404 0.660156C927.049 0.660156 939.266 8.27734 948.055 23.5117Z" fill="black"/>
<path d="M0 65.1081H654.663L673 65.1081L723 65.1081L655.482 118V86H0V65.1081Z" fill="black"/>
</svg>
