<?xml version="1.0" encoding="UTF-8"?>
<svg id="Layer_2" data-name="Layer 2" xmlns="http://www.w3.org/2000/svg" viewBox="0 0 252.06 49.44">
  <defs>
    <style>
      .cls-1 {
        isolation: isolate;
      }
    </style>
  </defs>
  <g id="Layer_2-2" data-name="Layer 2">
    <g class="cls-1">
      <path d="m29.76,48.54H0v-.72h3.48c2.94,0,4.5-1.08,4.5-3.48V5.28c0-2.82-1.62-3.96-3.9-3.96h-1.74v-.78h27.66c11.94,0,21.72,11.16,21.72,23.88,0,16.86-10.74,24.12-21.96,24.12ZM27.9,1.32h-6.18v42.9c0,2.16,1.2,3.6,3.36,3.6h3.78c4.68,0,7.2-2.22,7.2-23.64,0-19.08-3.54-22.86-8.16-22.86Z"/>
      <path d="m83.76,31.74h-16.92c0,.66-.06,1.32-.06,1.98,0,12.12,1.92,14.7,6.06,14.7,6.54,0,11.52-6.06,11.52-11.76h.84c0,5.76-4.62,12.78-13.68,12.78-10.32,0-17.22-6.66-17.22-16.74s7.8-17.4,16.38-17.4c9.66,0,14.7,7.68,14.7,15,0,1.2-.54,1.44-1.62,1.44Zm-12.78-15.6c-2.76,0-3.96,3.78-4.14,14.76h5.52c.78,0,1.44.18,1.44-1.08,0-10.98.18-13.68-2.82-13.68Z"/>
      <path d="m105.18,49.32c-6.12,0-7.44-6.48-11.04-6.48-2.4,0-3.72,2.64-3.72,5.64h-.6V3.48c0-1.74-.72-2.16-1.62-2.16h-2.04v-.72h15.6v19.14c1.32-2.7,3.96-4.68,7.68-4.68,5.76,0,11.16,6.18,11.16,16.02,0,11.52-7.86,18.24-15.42,18.24Zm-.06-31.56c-1.56,0-2.82,1.74-3.36,4.8v22.44c0,2.7,1.26,3.72,2.88,3.72,2.82,0,3.6-1.14,3.6-15.24s-.96-15.72-3.12-15.72Z"/>
      <path d="m147.72,28.68c-2.76,0-5.82-2.28-5.82-5.58,0-3.6,2.64-6,5.58-6,2.16,0,3.12.9,3.48.9.12,0,.3-.12.3-.3,0-.96-1.74-2.46-4.26-2.46s-6.54,1.98-6.54,8.7v21.18c0,1.92.78,2.7,1.74,2.7h2.28v.72h-21.54v-.72h2.04c1.74,0,3.06-.96,3.06-2.58v-25.62c0-1.62-.84-2.76-2.22-2.76h-2.04v-.78h16.02l.3,3.72c.72-1.56,2.7-5.22,7.08-5.22,3.6,0,6.66,3,6.66,7.32s-3,6.78-6.12,6.78Z"/>
      <path d="m176.4,48.54h-21.12v-.78h1.8c1.74,0,2.88-1.2,2.88-2.82v-25.44c0-1.62-.84-2.64-2.46-2.64h-1.62v-.78h16.62v28.86c0,1.62.72,2.82,2.16,2.82h1.74v.78Zm-10.5-34.62c-3.9,0-7.02-2.7-7.02-6.12s3.12-6.06,7.02-6.06,6.96,2.7,6.96,6.06-3.12,6.12-6.96,6.12Z"/>
      <path d="m207.72,31.74h-16.92c0,.66-.06,1.32-.06,1.98,0,12.12,1.92,14.7,6.06,14.7,6.54,0,11.52-6.06,11.52-11.76h.84c0,5.76-4.62,12.78-13.68,12.78-10.32,0-17.22-6.66-17.22-16.74s7.8-17.4,16.38-17.4c9.66,0,14.7,7.68,14.7,15,0,1.2-.54,1.44-1.62,1.44Zm-12.78-15.6c-2.76,0-3.96,3.78-4.14,14.76h5.52c.78,0,1.44.18,1.44-1.08,0-10.98.18-13.68-2.82-13.68Z"/>
      <path d="m236.82,13.68c-3.24,0-6.48-1.98-6.48-5.76,0-3.42,2.76-5.82,6.12-5.82h1.56c.3,0,.48,0,.48-.12,0-.3-1.56-1.14-4.2-1.14-3.42,0-5.76,2.04-5.76,5.7v9.48h6.96v.84h-6.96v28.5c0,1.62,1.02,2.4,2.4,2.4h2.64v.78h-22.86v-.78h2.7c1.44,0,2.76-.48,2.76-2.28v-28.62h-3.48v-.84h3.48v-5.4c0-6.6,8.34-10.62,16.08-10.62s11.04,3.84,11.04,7.5c0,3.18-2.46,6.18-6.48,6.18Z"/>
      <path d="m244.8,49.44c-4.02,0-7.26-3.18-7.26-7.08s3.24-7.08,7.26-7.08,7.26,3.18,7.26,7.08-3.24,7.08-7.26,7.08Z"/>
    </g>
  </g>
</svg>

